HIERARCHY
ROOT root
{
	OFFSET 0.000000 0.000000 0.000000
	CHANNELS 6 Xposition Yposition Zposition Zrotation Yrotation Xrotation
	JOINT lhip
	{
		OFFSET 0.058581 -0.082280 -0.017664
		CHANNELS 3 Zrotation Yrotation Xrotation
		JOINT lknee
		{
			OFFSET 0.043451 -0.386469 0.008037
			CHANNELS 3 Zrotation Yrotation Xrotation
			JOINT lankle
			{
				OFFSET -0.014790 -0.426874 -0.037428
				CHANNELS 3 Zrotation Yrotation Xrotation
				JOINT ltoe
				{
					OFFSET 0.041054 -0.060286 0.122042
					CHANNELS 3 Zrotation Yrotation Xrotation
					End Site
					{
						OFFSET 0.000000 0.000000 0.000000
					}
				}
			}
		}
	}
	JOINT rhip
	{
		OFFSET -0.060310 -0.090513 -0.013543
		CHANNELS 3 Zrotation Yrotation Xrotation
		JOINT rknee
		{
			OFFSET -0.043257 -0.383688 -0.004843
			CHANNELS 3 Zrotation Yrotation Xrotation
			JOINT rankle
			{
				OFFSET 0.019056 -0.420046 -0.034562
				CHANNELS 3 Zrotation Yrotation Xrotation
				JOINT rtoe
				{
					OFFSET -0.034840 -0.062106 0.130323
					CHANNELS 3 Zrotation Yrotation Xrotation
					End Site
					{
						OFFSET 0.000000 0.000000 0.000000
					}
				}
			}
		}
	}
	JOINT lowerback
	{
		OFFSET 0.004439 0.124404 -0.038385
		CHANNELS 3 Zrotation Yrotation Xrotation
		JOINT upperback
		{
			OFFSET 0.004488 0.137956 0.026820
			CHANNELS 3 Zrotation Yrotation Xrotation
			JOINT chest
			{
				OFFSET -0.002265 0.056032 0.002855
				CHANNELS 3 Zrotation Yrotation Xrotation
				JOINT lowerneck
				{
					OFFSET -0.013390 0.211636 -0.033468
					CHANNELS 3 Zrotation Yrotation Xrotation
					JOINT upperneck
					{
						OFFSET 0.010113 0.088937 0.050410
						CHANNELS 3 Zrotation Yrotation Xrotation
						End Site
						{
							OFFSET 0.000000 0.000000 0.000000
						}
					}
				}
				JOINT lclavicle
				{
					OFFSET 0.071702 0.114000 -0.018898
					CHANNELS 3 Zrotation Yrotation Xrotation
					JOINT lshoulder
					{
						OFFSET 0.122921 0.045205 -0.019046
						CHANNELS 3 Zrotation Yrotation Xrotation
						JOINT lelbow
						{
							OFFSET 0.255332 -0.015649 -0.022946
							CHANNELS 3 Zrotation Yrotation Xrotation
							JOINT lwrist
							{
								OFFSET 0.265709 0.012698 -0.007375
								CHANNELS 3 Zrotation Yrotation Xrotation
								End Site
								{
									OFFSET 0.000000 0.000000 0.000000
								}
							}
						}
					}
				}
				JOINT rclavicle
				{
					OFFSET -0.082954 0.112472 -0.023707
					CHANNELS 3 Zrotation Yrotation Xrotation
					JOINT rshoulder
					{
						OFFSET -0.113228 0.046853 -0.008472
						CHANNELS 3 Zrotation Yrotation Xrotation
						JOINT relbow
						{
							OFFSET -0.260127 -0.014369 -0.031269
							CHANNELS 3 Zrotation Yrotation Xrotation
							JOINT rwrist
							{
								OFFSET -0.269108 0.006794 -0.006027
								CHANNELS 3 Zrotation Yrotation Xrotation
								End Site
								{
									OFFSET 0.000000 0.000000 0.000000
								}
							}
						}
					}
				}
			}
		}
	}
}
MOTION
Frames: 10
Frame Time: 0.033333
-2.132262 0.736595 1.005344 90.998214 3.653681 86.234282 2.166609 -3.211159 3.485114 0.789074 -13.555744 0.708361 0.127655 8.963223 -10.271375 0.000000 -0.000000 0.000000 7.290437 1.125925 0.153877 -0.369874 3.690154 13.494175 4.920465 -2.606535 -11.926071 0.000000 -0.000000 0.000000 -8.864951 4.004946 11.887173 -3.856021 -0.581480 3.749876 -2.826977 0.873993 2.630811 6.003371 6.149971 20.903851 4.142172 -4.148398 22.234683 -20.501759 -5.993712 1.395973 -50.506840 -14.606552 9.326803 8.477367 -18.128803 0.786606 -3.799871 -4.104249 -5.351380 18.995910 6.846471 3.072557 63.792321 8.541569 19.685834 -5.690759 32.845754 16.445379 11.944215 1.384331 -6.779697 
-2.131895 0.738593 1.005981 90.847934 3.834974 86.242781 2.210593 -3.184627 3.767775 0.915892 -13.518929 0.260068 0.103243 9.050341 -10.088010 0.000000 -0.000000 0.000000 7.196069 1.058824 0.037284 -0.218529 3.729245 13.733137 5.161914 -2.279649 -11.425841 0.000000 -0.000000 0.000000 -8.599606 3.842473 12.160768 -3.911125 -0.619764 3.544881 -2.888040 0.943497 2.604348 5.936769 6.098174 21.006191 4.063202 -4.014829 22.220876 -20.853107 -5.477411 1.557290 -50.650506 -13.485970 9.509223 7.957305 -18.054955 1.588999 -4.311793 -4.243209 -5.129982 19.262439 6.745044 3.181545 63.406367 8.609283 19.423966 -5.646176 32.315342 16.458184 12.248262 1.568079 -5.841899 
-2.131254 0.740530 1.006099 90.692985 3.958034 86.151262 2.212445 -3.152908 4.130693 1.002470 -13.548413 -0.191729 0.067452 9.239328 -9.922247 0.000000 -0.000000 0.000000 7.149232 1.257437 0.022727 -0.079639 3.791790 14.013259 5.158887 -2.356308 -11.376780 0.000000 -0.000000 0.000000 -8.556240 3.871398 12.084697 -3.792453 -0.431694 3.797365 -2.838978 0.947097 2.706795 6.079857 6.190553 20.943460 3.864609 -3.872117 22.301054 -20.997008 -5.105961 1.664292 -51.050043 -12.904987 9.733981 7.357927 -17.800606 2.478880 -4.045131 -3.813708 -4.400940 19.245403 6.490128 3.200816 63.305707 8.658619 19.338401 -5.711167 32.266857 16.352322 11.870641 1.324746 -5.621319 
-2.131045 0.742458 1.006179 90.500512 4.040739 86.253832 2.162394 -3.082923 4.243792 1.080425 -13.408645 -0.575040 0.161467 9.246665 -9.774656 0.000000 -0.000000 0.000000 6.983926 1.352654 -0.463663 0.099013 3.760310 14.687783 5.217311 -2.295136 -11.099435 0.000000 -0.000000 0.000000 -8.565762 3.916094 11.697673 -3.642361 -0.287157 4.070151 -2.826679 0.960565 2.863813 6.096135 6.080475 20.955547 3.728464 -3.945143 22.145438 -21.040203 -4.916656 1.887748 -51.347553 -12.522313 9.959072 6.969344 -17.408758 3.165969 -4.507196 -3.628167 -4.223242 19.218167 6.305920 3.130795 63.250892 8.895455 19.270348 -5.691423 32.173232 16.234890 12.006444 1.241972 -5.698203 
-2.130815 0.744555 1.006516 90.529172 4.163264 86.220178 2.105623 -2.915974 4.557730 1.296093 -13.582086 -1.095669 0.100375 9.262105 -9.533678 0.000000 -0.000000 0.000000 6.888764 1.357698 -0.549691 0.198225 3.726734 14.948510 5.360180 -2.135970 -10.806948 0.000000 -0.000000 0.000000 -8.384583 3.743311 12.045534 -3.645426 -0.292949 3.698383 -2.847469 1.026946 2.745311 6.079641 6.069732 21.091209 3.546405 -3.897358 22.414395 -21.111927 -4.656014 1.837681 -51.439036 -11.888227 10.115859 6.368129 -17.107061 4.029621 -4.743769 -3.612436 -3.880971 19.349393 6.139741 3.107590 63.226792 8.727494 19.272711 -5.661836 32.276488 16.385694 11.957515 1.496683 -5.250472 
-2.131108 0.746719 1.006603 90.566552 4.222073 86.147398 2.074572 -2.970404 4.796009 1.234164 -13.561029 -1.449557 0.176289 9.303262 -9.254088 0.000000 -0.000000 0.000000 6.711448 1.439673 -0.696197 0.427295 3.814932 15.376980 5.164045 -2.054425 -10.316345 0.000000 -0.000000 0.000000 -8.365169 3.842018 11.828258 -3.489530 -0.259567 4.145581 -2.816184 1.040557 2.886981 6.114434 5.941341 21.172743 3.539294 -4.188882 22.019864 -20.930157 -4.413815 1.649130 -51.596070 -11.914007 10.351302 5.682416 -17.254668 4.801798 -5.140627 -3.445199 -4.063659 19.281604 5.992730 2.865017 63.298767 9.043348 19.381549 -5.570085 32.552757 16.086032 12.031145 1.030016 -5.715080 
-2.131241 0.748922 1.006627 90.526874 4.355036 86.144723 2.035945 -2.923210 4.888324 1.313537 -13.622235 -1.643278 0.257115 9.337230 -9.253680 0.000000 -0.000000 0.000000 6.645037 1.489067 -0.969393 0.528786 3.812869 15.902578 5.214866 -1.979642 -10.301018 0.000000 -0.000000 0.000000 -8.253089 3.913195 11.422159 -3.306356 -0.149558 4.487444 -2.781565 1.083142 3.042631 6.244811 6.036743 21.062744 3.283953 -4.322714 22.027034 -20.908504 -4.472017 1.441185 -51.567101 -12.120387 10.459805 5.110723 -17.006791 5.357310 -5.180252 -3.212075 -2.901015 19.393428 6.017482 2.852630 63.243807 9.352995 19.450803 -5.777896 32.971667 15.630458 12.179560 0.769715 -5.918427 
-2.131571 0.751489 1.006770 90.907622 4.383911 86.043707 1.875292 -2.775245 4.793294 1.302639 -13.827464 -1.336668 0.235450 9.035411 -9.425347 0.000000 -0.000000 0.000000 6.398578 1.287671 -0.867263 0.571468 3.626341 15.945715 5.376193 -1.831676 -10.071712 0.000000 -0.000000 0.000000 -8.042668 3.655430 12.111998 -3.361614 -0.499693 3.876790 -2.820671 1.097535 2.825312 6.160480 6.201859 21.140309 3.231864 -4.207279 22.353858 -20.753069 -4.634718 1.527539 -51.420978 -11.731079 10.490062 4.853028 -17.311712 5.975632 -5.216191 -3.560035 -2.918739 19.554425 6.258669 2.977681 63.424628 9.353045 19.472153 -5.843703 33.279394 15.497428 11.989085 0.930634 -5.655920 
-2.131904 0.753988 1.006385 90.864593 4.472743 85.932990 1.827143 -2.726885 4.958363 1.268189 -13.829607 -1.522192 0.226612 9.070052 -9.313743 0.000000 -0.000000 0.000000 6.377034 1.548560 -0.944967 0.453880 3.448086 16.186835 5.511202 -2.032560 -10.009426 0.000000 -0.000000 0.000000 -8.045105 3.875802 11.528387 -3.106454 -0.292788 4.560261 -2.676837 0.970740 3.063450 6.150817 6.193573 21.189798 3.098225 -4.245295 22.092461 -20.838551 -5.296589 1.743721 -51.233757 -12.350237 10.672459 4.895519 -17.568656 5.704683 -4.629095 -3.442086 -2.370654 19.532997 6.494944 2.932449 63.408750 9.581226 19.583299 -6.070019 33.973803 15.067480 11.715655 1.006808 -6.103645 
-2.131417 0.756563 1.006154 91.349331 4.466374 85.977647 1.572439 -2.906206 5.033301 1.329888 -14.334707 -1.716847 0.496325 8.693255 -8.960632 0.000000 -0.000000 0.000000 6.109553 1.229681 -0.942241 0.437561 3.197337 16.190779 5.611644 -1.934005 -9.958316 0.000000 -0.000000 0.000000 -7.984266 3.527276 11.606760 -3.051213 -0.598924 4.272684 -2.737467 1.026694 2.875161 6.186014 6.178578 21.248269 3.005132 -4.536943 22.454497 -20.571808 -5.269986 1.630180 -51.196694 -12.597046 10.780192 4.688885 -17.807531 6.219003 -5.158179 -3.886823 -3.125222 19.667614 6.398683 2.889269 63.660051 9.523633 19.839228 -5.886862 34.457810 15.223636 11.050267 1.761694 -6.097423 
